<svg xmlns="http://www.w3.org/2000/svg" viewBox="0 0 1024 1024">
  <defs>
    <linearGradient id="sky" x1="0" y1="0" x2="1" y2="1">
      <stop offset="0" stop-color="#52B8FF"/>
      <stop offset="1" stop-color="#087EFF"/>
    </linearGradient>
    <linearGradient id="sun" x1="0" y1="0" x2="1" y2="1">
      <stop offset="0" stop-color="#FFE088"/>
      <stop offset="1" stop-color="#FFB45C"/>
    </linearGradient>
  </defs>
  <rect width="1024" height="1024" rx="228" fill="url(#sky)"/>
  <circle cx="752" cy="258" r="92" fill="url(#sun)"/>
  <path d="M219 719C315 578 405 636 489 527C567 426 628 448 766 345" fill="none" stroke="#FFF" stroke-width="48" stroke-linecap="round" stroke-dasharray="28 62"/>
  <path d="M333 245c-116 0-210 94-210 210 0 153 210 347 210 347s210-194 210-347c0-116-94-210-210-210Z" fill="#FFF"/>
  <circle cx="333" cy="455" r="88" fill="#12C7C1"/>
  <path d="m327 402 22 43 47 7-34 33 8 47-43-22-42 22 8-47-34-33 47-7 21-43Z" fill="#FFF"/>
</svg>
